<mxfile host="app.diagrams.net" modified="2023-03-29T06:59:49.283Z" agent="Mozilla/5.0 (X11; Ubuntu; Linux x86_64; rv:109.0) Gecko/20100101 Firefox/110.0" etag="q8dkqRMSNnydxivyHffd" version="21.1.1" type="device">
  <diagram name="Page-1" id="ooMQytp7PPKx0NwTYgfh">
    <mxGraphModel dx="1133" dy="1795" grid="1" gridSize="10" guides="1" tooltips="1" connect="1" arrows="1" fold="1" page="1" pageScale="1" pageWidth="827" pageHeight="1169" math="0" shadow="0">
      <root>
        <mxCell id="0" />
        <mxCell id="1" parent="0" />
        <mxCell id="YXhnWQwSQKn2O-PIUUPI-3" value="Connexion" style="rounded=0;whiteSpace=wrap;html=1;arcSize=40;fontColor=#000000;fillColor=#ffffc0;strokeColor=#ff0000;" parent="1" vertex="1">
          <mxGeometry x="360" y="120" width="120" height="40" as="geometry" />
        </mxCell>
        <mxCell id="YXhnWQwSQKn2O-PIUUPI-4" value="" style="edgeStyle=orthogonalEdgeStyle;html=1;verticalAlign=bottom;endArrow=open;endSize=8;strokeColor=#ff0000;rounded=0;entryX=0.5;entryY=0;entryDx=0;entryDy=0;" parent="1" source="YXhnWQwSQKn2O-PIUUPI-3" target="YXhnWQwSQKn2O-PIUUPI-5" edge="1">
          <mxGeometry relative="1" as="geometry">
            <mxPoint x="414" y="220" as="targetPoint" />
          </mxGeometry>
        </mxCell>
        <mxCell id="YXhnWQwSQKn2O-PIUUPI-5" value="Déjà enregristré" style="rhombus;whiteSpace=wrap;html=1;fontColor=#000000;fillColor=#ffffc0;strokeColor=#ff0000;rounded=0;" parent="1" vertex="1">
          <mxGeometry x="380" y="210" width="80" height="40" as="geometry" />
        </mxCell>
        <mxCell id="YXhnWQwSQKn2O-PIUUPI-6" value="no" style="edgeStyle=orthogonalEdgeStyle;html=1;align=left;verticalAlign=bottom;endArrow=open;endSize=8;strokeColor=#ff0000;rounded=0;" parent="1" source="YXhnWQwSQKn2O-PIUUPI-5" edge="1">
          <mxGeometry x="-1" relative="1" as="geometry">
            <mxPoint x="590" y="230" as="targetPoint" />
          </mxGeometry>
        </mxCell>
        <mxCell id="YXhnWQwSQKn2O-PIUUPI-7" value="yes" style="edgeStyle=orthogonalEdgeStyle;html=1;align=left;verticalAlign=top;endArrow=open;endSize=8;strokeColor=#ff0000;rounded=0;entryX=0.5;entryY=0;entryDx=0;entryDy=0;" parent="1" source="YXhnWQwSQKn2O-PIUUPI-5" target="YXhnWQwSQKn2O-PIUUPI-10" edge="1">
          <mxGeometry x="-1" relative="1" as="geometry">
            <mxPoint x="420" y="330" as="targetPoint" />
            <Array as="points" />
          </mxGeometry>
        </mxCell>
        <mxCell id="YXhnWQwSQKn2O-PIUUPI-8" value="&lt;div&gt;Inscription&lt;/div&gt;" style="rounded=0;whiteSpace=wrap;html=1;arcSize=40;fontColor=#000000;fillColor=#ffffc0;strokeColor=#ff0000;" parent="1" vertex="1">
          <mxGeometry x="590" y="210" width="120" height="40" as="geometry" />
        </mxCell>
        <mxCell id="YXhnWQwSQKn2O-PIUUPI-9" value="" style="edgeStyle=orthogonalEdgeStyle;html=1;verticalAlign=bottom;endArrow=open;endSize=8;strokeColor=#ff0000;rounded=0;entryX=1;entryY=0.5;entryDx=0;entryDy=0;" parent="1" source="YXhnWQwSQKn2O-PIUUPI-8" target="YXhnWQwSQKn2O-PIUUPI-10" edge="1">
          <mxGeometry relative="1" as="geometry">
            <mxPoint x="650" y="320" as="targetPoint" />
            <Array as="points">
              <mxPoint x="650" y="340" />
            </Array>
          </mxGeometry>
        </mxCell>
        <mxCell id="YXhnWQwSQKn2O-PIUUPI-10" value="Valide panier" style="rounded=0;whiteSpace=wrap;html=1;arcSize=40;fontColor=#000000;fillColor=#ffffc0;strokeColor=#ff0000;" parent="1" vertex="1">
          <mxGeometry x="360" y="320" width="120" height="40" as="geometry" />
        </mxCell>
        <mxCell id="YXhnWQwSQKn2O-PIUUPI-11" value="" style="edgeStyle=orthogonalEdgeStyle;html=1;verticalAlign=bottom;endArrow=open;endSize=8;strokeColor=#ff0000;rounded=0;" parent="1" source="YXhnWQwSQKn2O-PIUUPI-10" edge="1">
          <mxGeometry relative="1" as="geometry">
            <mxPoint x="420" y="440" as="targetPoint" />
          </mxGeometry>
        </mxCell>
        <mxCell id="YXhnWQwSQKn2O-PIUUPI-12" value="Moyen de paiement" style="rounded=0;whiteSpace=wrap;html=1;arcSize=40;fontColor=#000000;fillColor=#ffffc0;strokeColor=#ff0000;" parent="1" vertex="1">
          <mxGeometry x="360" y="440" width="120" height="40" as="geometry" />
        </mxCell>
        <mxCell id="YXhnWQwSQKn2O-PIUUPI-13" value="" style="edgeStyle=orthogonalEdgeStyle;html=1;verticalAlign=bottom;endArrow=open;endSize=8;strokeColor=#ff0000;rounded=0;" parent="1" source="YXhnWQwSQKn2O-PIUUPI-12" edge="1">
          <mxGeometry relative="1" as="geometry">
            <mxPoint x="420" y="540" as="targetPoint" />
          </mxGeometry>
        </mxCell>
        <mxCell id="YXhnWQwSQKn2O-PIUUPI-15" value="Déjà enregristré" style="rhombus;whiteSpace=wrap;html=1;fontColor=#000000;fillColor=#ffffc0;strokeColor=#ff0000;rounded=0;" parent="1" vertex="1">
          <mxGeometry x="380" y="540" width="80" height="40" as="geometry" />
        </mxCell>
        <mxCell id="YXhnWQwSQKn2O-PIUUPI-16" value="no" style="edgeStyle=orthogonalEdgeStyle;html=1;align=left;verticalAlign=bottom;endArrow=open;endSize=8;strokeColor=#ff0000;rounded=0;" parent="1" source="YXhnWQwSQKn2O-PIUUPI-15" edge="1">
          <mxGeometry x="-1" relative="1" as="geometry">
            <mxPoint x="520" y="560" as="targetPoint" />
          </mxGeometry>
        </mxCell>
        <mxCell id="YXhnWQwSQKn2O-PIUUPI-17" value="yes" style="edgeStyle=orthogonalEdgeStyle;html=1;align=left;verticalAlign=top;endArrow=open;endSize=8;strokeColor=#ff0000;rounded=0;" parent="1" source="YXhnWQwSQKn2O-PIUUPI-15" edge="1">
          <mxGeometry x="-1" relative="1" as="geometry">
            <mxPoint x="420" y="640" as="targetPoint" />
          </mxGeometry>
        </mxCell>
        <mxCell id="YXhnWQwSQKn2O-PIUUPI-18" value="Ajout moyen de paiement" style="rounded=0;whiteSpace=wrap;html=1;arcSize=40;fontColor=#000000;fillColor=#ffffc0;strokeColor=#ff0000;" parent="1" vertex="1">
          <mxGeometry x="520" y="540" width="120" height="40" as="geometry" />
        </mxCell>
        <mxCell id="YXhnWQwSQKn2O-PIUUPI-19" value="" style="edgeStyle=orthogonalEdgeStyle;html=1;verticalAlign=bottom;endArrow=open;endSize=8;strokeColor=#ff0000;entryX=1;entryY=0.5;entryDx=0;entryDy=0;rounded=0;" parent="1" source="YXhnWQwSQKn2O-PIUUPI-18" target="YXhnWQwSQKn2O-PIUUPI-20" edge="1">
          <mxGeometry relative="1" as="geometry">
            <mxPoint x="580" y="640" as="targetPoint" />
            <Array as="points">
              <mxPoint x="580" y="650" />
            </Array>
          </mxGeometry>
        </mxCell>
        <mxCell id="YXhnWQwSQKn2O-PIUUPI-20" value="Vérification" style="rounded=0;whiteSpace=wrap;html=1;arcSize=40;fontColor=#000000;fillColor=#ffffc0;strokeColor=#ff0000;" parent="1" vertex="1">
          <mxGeometry x="360" y="630" width="120" height="40" as="geometry" />
        </mxCell>
        <mxCell id="YXhnWQwSQKn2O-PIUUPI-21" value="" style="edgeStyle=orthogonalEdgeStyle;html=1;verticalAlign=bottom;endArrow=open;endSize=8;strokeColor=#ff0000;rounded=0;" parent="1" source="YXhnWQwSQKn2O-PIUUPI-20" edge="1">
          <mxGeometry relative="1" as="geometry">
            <mxPoint x="420" y="730" as="targetPoint" />
          </mxGeometry>
        </mxCell>
        <mxCell id="YXhnWQwSQKn2O-PIUUPI-22" value="Facture" style="rounded=0;whiteSpace=wrap;html=1;arcSize=40;fontColor=#000000;fillColor=#ffffc0;strokeColor=#ff0000;" parent="1" vertex="1">
          <mxGeometry x="360" y="730" width="120" height="40" as="geometry" />
        </mxCell>
        <mxCell id="YXhnWQwSQKn2O-PIUUPI-23" value="" style="edgeStyle=orthogonalEdgeStyle;html=1;verticalAlign=bottom;endArrow=open;endSize=8;strokeColor=#ff0000;rounded=0;" parent="1" source="YXhnWQwSQKn2O-PIUUPI-22" edge="1">
          <mxGeometry relative="1" as="geometry">
            <mxPoint x="420" y="830" as="targetPoint" />
          </mxGeometry>
        </mxCell>
        <mxCell id="YXhnWQwSQKn2O-PIUUPI-24" value="" style="ellipse;html=1;shape=endState;fillColor=#000000;strokeColor=#ff0000;rounded=0;" parent="1" vertex="1">
          <mxGeometry x="405" y="830" width="30" height="30" as="geometry" />
        </mxCell>
        <mxCell id="Iv2duHjTqt1sAviGXXmN-1" value="Ajoute produit" style="rounded=0;whiteSpace=wrap;html=1;arcSize=40;fontColor=#000000;fillColor=#ffffc0;strokeColor=#ff0000;" vertex="1" parent="1">
          <mxGeometry x="360" y="-80" width="120" height="40" as="geometry" />
        </mxCell>
        <mxCell id="Iv2duHjTqt1sAviGXXmN-3" value="Voir produit" style="rounded=0;whiteSpace=wrap;html=1;arcSize=40;fontColor=#000000;fillColor=#ffffc0;strokeColor=#ff0000;" vertex="1" parent="1">
          <mxGeometry x="360" y="-180" width="120" height="40" as="geometry" />
        </mxCell>
        <mxCell id="Iv2duHjTqt1sAviGXXmN-4" value="" style="edgeStyle=orthogonalEdgeStyle;html=1;verticalAlign=bottom;endArrow=open;endSize=8;strokeColor=#ff0000;rounded=0;entryX=0.5;entryY=0;entryDx=0;entryDy=0;" edge="1" source="Iv2duHjTqt1sAviGXXmN-3" parent="1" target="Iv2duHjTqt1sAviGXXmN-1">
          <mxGeometry relative="1" as="geometry">
            <mxPoint x="420" y="-90" as="targetPoint" />
          </mxGeometry>
        </mxCell>
        <mxCell id="Iv2duHjTqt1sAviGXXmN-5" value="Voir sous catégorie" style="rounded=0;whiteSpace=wrap;html=1;arcSize=40;fontColor=#000000;fillColor=#ffffc0;strokeColor=#ff0000;" vertex="1" parent="1">
          <mxGeometry x="360" y="-280" width="120" height="40" as="geometry" />
        </mxCell>
        <mxCell id="Iv2duHjTqt1sAviGXXmN-6" value="" style="edgeStyle=orthogonalEdgeStyle;html=1;verticalAlign=bottom;endArrow=open;endSize=8;strokeColor=#ff0000;rounded=0;" edge="1" source="Iv2duHjTqt1sAviGXXmN-5" parent="1">
          <mxGeometry relative="1" as="geometry">
            <mxPoint x="420" y="-180" as="targetPoint" />
          </mxGeometry>
        </mxCell>
        <mxCell id="Iv2duHjTqt1sAviGXXmN-7" value="Voir catégorie" style="rounded=0;whiteSpace=wrap;html=1;arcSize=40;fontColor=#000000;fillColor=#ffffc0;strokeColor=#ff0000;" vertex="1" parent="1">
          <mxGeometry x="360" y="-380" width="120" height="40" as="geometry" />
        </mxCell>
        <mxCell id="Iv2duHjTqt1sAviGXXmN-8" value="" style="edgeStyle=orthogonalEdgeStyle;html=1;verticalAlign=bottom;endArrow=open;endSize=8;strokeColor=#ff0000;rounded=0;" edge="1" source="Iv2duHjTqt1sAviGXXmN-7" parent="1">
          <mxGeometry relative="1" as="geometry">
            <mxPoint x="420" y="-280" as="targetPoint" />
          </mxGeometry>
        </mxCell>
        <mxCell id="Iv2duHjTqt1sAviGXXmN-9" value="" style="ellipse;html=1;shape=startState;fillColor=#000000;strokeColor=#ff0000;rounded=0;" vertex="1" parent="1">
          <mxGeometry x="405" y="-470" width="30" height="30" as="geometry" />
        </mxCell>
        <mxCell id="Iv2duHjTqt1sAviGXXmN-10" value="" style="edgeStyle=orthogonalEdgeStyle;html=1;verticalAlign=bottom;endArrow=open;endSize=8;strokeColor=#ff0000;rounded=0;" edge="1" parent="1">
          <mxGeometry relative="1" as="geometry">
            <mxPoint x="420" y="-380" as="targetPoint" />
            <mxPoint x="420" y="-440" as="sourcePoint" />
          </mxGeometry>
        </mxCell>
        <mxCell id="Iv2duHjTqt1sAviGXXmN-11" value="Continuer achats" style="rhombus;whiteSpace=wrap;html=1;fontColor=#000000;fillColor=#ffffc0;strokeColor=#ff0000;rounded=0;" vertex="1" parent="1">
          <mxGeometry x="380" y="20" width="80" height="40" as="geometry" />
        </mxCell>
        <mxCell id="Iv2duHjTqt1sAviGXXmN-12" value="yes" style="edgeStyle=orthogonalEdgeStyle;html=1;align=left;verticalAlign=bottom;endArrow=open;endSize=8;strokeColor=#ff0000;rounded=0;entryX=1;entryY=0.5;entryDx=0;entryDy=0;" edge="1" source="Iv2duHjTqt1sAviGXXmN-11" parent="1" target="Iv2duHjTqt1sAviGXXmN-7">
          <mxGeometry x="-1" relative="1" as="geometry">
            <mxPoint x="570" y="-360" as="targetPoint" />
            <Array as="points">
              <mxPoint x="580" y="40" />
              <mxPoint x="580" y="-360" />
            </Array>
          </mxGeometry>
        </mxCell>
        <mxCell id="Iv2duHjTqt1sAviGXXmN-13" value="no" style="edgeStyle=orthogonalEdgeStyle;html=1;align=left;verticalAlign=top;endArrow=open;endSize=8;strokeColor=#ff0000;rounded=0;" edge="1" source="Iv2duHjTqt1sAviGXXmN-11" parent="1">
          <mxGeometry x="-1" relative="1" as="geometry">
            <mxPoint x="420" y="120" as="targetPoint" />
          </mxGeometry>
        </mxCell>
        <mxCell id="Iv2duHjTqt1sAviGXXmN-17" value="" style="edgeStyle=orthogonalEdgeStyle;html=1;verticalAlign=bottom;endArrow=open;endSize=8;strokeColor=#ff0000;" edge="1" parent="1">
          <mxGeometry relative="1" as="geometry">
            <mxPoint x="419.58000000000004" y="20" as="targetPoint" />
            <mxPoint x="420" y="-40" as="sourcePoint" />
            <Array as="points">
              <mxPoint x="420" y="-10" />
            </Array>
          </mxGeometry>
        </mxCell>
      </root>
    </mxGraphModel>
  </diagram>
</mxfile>
